<svg xmlns="http://www.w3.org/2000/svg" width="1920" height="1080" fill="none" viewBox="0 0 1920 1080"><g clip-path="url(#a)"><path fill="url(#b)" d="M0 0h1920v1082.94H0z"/><path fill="url(#c)" d="M0 0h1920v1082.94H0z"/><path fill="url(#d)" d="M0 0h1920v1082.94H0z"/><path fill="url(#e)" d="M0 0h1920v1082.94H0z"/><path fill="url(#f)" d="M0 0h1920v1082.94H0z"/><path fill="url(#g)" d="M0 0h1920v1082.94H0z"/><path fill="url(#h)" d="M0 0h1920v1082.94H0z"/><path fill="url(#i)" d="M0 0h1920v1082.94H0z"/><path fill="url(#j)" d="M0 0h1920v1082.94H0z"/><path fill="url(#k)" d="M196.11 787.348 30.409 577.816l-62.004 51.848C2.186 690.813 83.86 799.998 123.415 845.076z"/><path fill="url(#l)" d="M196.11 787.348 30.409 577.816l-62.004 51.848C2.186 690.813 83.86 799.998 123.415 845.076z"/><path fill="url(#m)" d="M211.611 769.174C136.778 702.894 41.456 571.58 3.148 514.208c5.132-11.546 25.301-32.962 34.744-42.227 89.8 117.594 184.231 225.033 220.222 264.053z"/><path fill="url(#n)" d="M211.611 769.174C136.778 702.894 41.456 571.58 3.148 514.208c5.132-11.546 25.301-32.962 34.744-42.227 89.8 117.594 184.231 225.033 220.222 264.053z"/><path fill="url(#o)" d="M211.611 769.174C136.778 702.894 41.456 571.58 3.148 514.208c5.132-11.546 25.301-32.962 34.744-42.227 89.8 117.594 184.231 225.033 220.222 264.053z"/><path fill="url(#p)" d="M161.366 579.954c-15.394-14.967-91.759-106.726-121.87-142.182l44.365-45.434c14.111 17.532 72.338 81.068 93.541 102.093z"/><path fill="url(#q)" d="M161.366 579.954c-15.394-14.967-91.759-106.726-121.87-142.182l44.365-45.434c14.111 17.532 72.338 81.068 93.541 102.093z"/><path fill="url(#r)" d="M161.366 579.954c-15.394-14.967-91.759-106.726-121.87-142.182l44.365-45.434c14.111 17.532 72.338 81.068 93.541 102.093z"/><path fill="url(#s)" fill-opacity=".6" d="M398.142 352.699 334 405.616c27.795 47.893 179.894 231.269 227.288 285.434l60.936-46.503c-39.341-45.328-182.567-234.476-224.082-291.848"/><path fill="url(#t)" d="M398.142 352.699 334 405.616c27.795 47.893 179.894 231.269 227.288 285.434l60.936-46.503c-39.341-45.328-182.567-234.476-224.082-291.848"/><path fill="url(#u)" d="M398.142 352.699 334 405.616c27.795 47.893 179.894 231.269 227.288 285.434l60.936-46.503c-39.341-45.328-182.567-234.476-224.082-291.848"/><path fill="url(#v)" d="M398.142 352.699 334 405.616c27.795 47.893 179.894 231.269 227.288 285.434l60.936-46.503c-39.341-45.328-182.567-234.476-224.082-291.848"/><path fill="url(#w)" d="M398.142 352.699 334 405.616c27.795 47.893 179.894 231.269 227.288 285.434l60.936-46.503c-39.341-45.328-182.567-234.476-224.082-291.848"/><path fill="url(#x)" d="M398.142 352.699 334 405.616c27.795 47.893 179.894 231.269 227.288 285.434l60.936-46.503c-39.341-45.328-182.567-234.476-224.082-291.848"/><path fill="url(#y)" d="M398.142 352.699 334 405.616c27.795 47.893 179.894 231.269 227.288 285.434l60.936-46.503c-39.341-45.328-182.567-234.476-224.082-291.848"/><path fill="url(#z)" fill-opacity=".6" d="M630.792 630.466c-53.88-54.307-191.654-243.474-224.081-296.391l48.641-45.969c22.236 43.189 185.24 238.841 234.237 296.391z"/><path fill="url(#A)" d="M630.792 630.466c-53.88-54.307-191.654-243.474-224.081-296.391l48.641-45.969c22.236 43.189 185.24 238.841 234.237 296.391z"/><path fill="url(#B)" d="M630.792 630.466c-53.88-54.307-191.654-243.474-224.081-296.391l48.641-45.969c22.236 43.189 185.24 238.841 234.237 296.391z"/><path fill="url(#C)" d="M630.792 630.466c-53.88-54.307-191.654-243.474-224.081-296.391l48.641-45.969c22.236 43.189 185.24 238.841 234.237 296.391z"/><path fill="url(#D)" d="M630.792 630.466c-53.88-54.307-191.654-243.474-224.081-296.391l48.641-45.969c22.236 43.189 185.24 238.841 234.237 296.391z"/><path fill="url(#E)" d="M630.792 630.466c-53.88-54.307-191.654-243.474-224.081-296.391l48.641-45.969c22.236 43.189 185.24 238.841 234.237 296.391z"/><path fill="url(#F)" fill-opacity=".6" d="M670.063 549.402c-82.957-95.786-189.07-257.46-212.589-296.124L506.115 218c20.098 33.354 164.661 225.746 215.262 287.572z"/><path fill="url(#G)" d="M670.063 549.402c-82.957-95.786-189.07-257.46-212.589-296.124L506.115 218c20.098 33.354 164.661 225.746 215.262 287.572z"/><path fill="url(#H)" d="M670.063 549.402c-82.957-95.786-189.07-257.46-212.589-296.124L506.115 218c20.098 33.354 164.661 225.746 215.262 287.572z"/><path fill="url(#I)" d="M670.063 549.402c-82.957-95.786-189.07-257.46-212.589-296.124L506.115 218c20.098 33.354 164.661 225.746 215.262 287.572z"/><path fill="url(#J)" fill-opacity=".7" d="M1160.92 114.52c-1.39-11.438-10.07-87.555-13.9-121.186h645.61l128.91 23.503-.54 173.854c-292.38 41.158-372.42 64.276-452.33 81.781s-236.1 58.35-253.23 62.939c-14.24 3.816-22.85-1.47-25.79-13.63-1.94-8.009-26.99-192.962-28.73-207.261"/><path fill="url(#K)" d="M1160.92 114.52c-1.39-11.438-10.07-87.555-13.9-121.186h645.61l128.91 23.503-.54 173.854c-292.38 41.158-372.42 64.276-452.33 81.781s-236.1 58.35-253.23 62.939c-14.24 3.816-22.85-1.47-25.79-13.63-1.94-8.009-26.99-192.962-28.73-207.261"/><path fill="url(#L)" d="M1160.92 114.52c-1.39-11.438-10.07-87.555-13.9-121.186h645.61l128.91 23.503-.54 173.854c-292.38 41.158-372.42 64.276-452.33 81.781s-236.1 58.35-253.23 62.939c-14.24 3.816-22.85-1.47-25.79-13.63-1.94-8.009-26.99-192.962-28.73-207.261"/><path fill="url(#M)" d="M1149.65-6.666c4.03 35.398 12.07 105.934 13.41 116.911 1.73 14.301 24.54 200.432 26.48 208.449 2.94 12.16 11.55 17.446 25.79 13.63 17.13-4.589 175.56-46.622 255.47-64.128 79.72-17.463 159.57-40.511 450.22-81.482l-.02 3.977c-292.38 41.158-372.42 64.276-452.33 81.782-79.91 17.505-236.1 58.349-253.23 62.938-14.24 3.816-22.85-1.47-25.79-13.63-1.94-8.009-26.99-192.959-28.73-207.26-1.39-11.439-10.07-87.557-13.9-121.187z"/><path fill="url(#N)" d="M1149.65-6.666c4.03 35.398 12.07 105.934 13.41 116.911 1.73 14.301 24.54 200.432 26.48 208.449 2.94 12.16 11.55 17.446 25.79 13.63 17.13-4.589 175.56-46.622 255.47-64.128 79.72-17.463 159.57-40.511 450.22-81.482l-.02 3.977c-292.38 41.158-372.42 64.276-452.33 81.782-79.91 17.505-236.1 58.349-253.23 62.938-14.24 3.816-22.85-1.47-25.79-13.63-1.94-8.009-26.99-192.959-28.73-207.26-1.39-11.439-10.07-87.557-13.9-121.187z"/><path fill="url(#O)" d="M1921 190.691c-292.38 41.158-372.42 64.276-452.33 81.781s-236.1 58.349-253.23 62.939c-9.3 2.491-16.19 1.103-20.68-3.544 4.47 3.555 11.26 5.243 19.59 3.01 17.13-4.59 173.06-45.902 252.97-63.408 79.91-17.505 161.3-41.225 453.68-82.383z"/><path fill="url(#P)" d="M1148.09-2.066c4.09 35.547 13.16 110.785 15.19 127.246 2.03 16.458 7.76 64.528 10.7 85.822l-.29-1.357c-2.94-21.29-9.44-67.865-11.47-84.334-2.03-16.465-11.1-91.71-15.2-127.254z"/><path fill="url(#Q)" d="M1930.72 186.008c-28.37 3.363-128.2 17.862-275.53 43.45l-14.4 2.512c-75.76 13.253-207.64 44.344-251.73 55.568l-1.3.301c44.09-11.225 176.93-44.185 252.75-57.449l14.41-2.511c147.34-25.591 247.2-40.096 275.61-43.464z"/><circle cx="1226" cy="189.888" r=".802" fill="#666977"/><circle cx="1264.21" cy="199.51" r=".802" fill="#666977"/><circle cx="1295.48" cy="149.532" r=".802" fill="#666977"/><circle cx="1254.06" cy="252.962" r=".802" fill="#666977"/><circle cx="1374.59" cy="224.097" r=".802" fill="#666977"/><circle cx="1384.75" cy="90.468" r=".802" fill="#666977"/><circle cx="1573.17" cy="169.042" r=".802" fill="#666977"/><circle cx="1838.29" cy="121.42" r=".802" fill="#666977"/><circle cx="1660.04" cy="142.85" r=".802" fill="#666977"/><circle cx="1481.23" cy="194.432" r=".535" fill="#666977"/><circle cx="1543.5" cy="218.485" r=".535" fill="#666977"/><circle cx="1638.65" cy="184.949" r=".535" fill="#666977"/><circle cx="1620.47" cy="165.518" r=".535" fill="#666977"/><circle cx="1684.61" cy="103.933" r=".535" fill="#666977"/><circle cx="1761.58" cy="60.637" r=".535" fill="#666977"/><circle cx="1749.29" cy="128.686" r=".535" fill="#666977"/><circle cx="1795.26" cy="164.449" r=".535" fill="#666977"/><circle cx="1843.9" cy="120.084" r=".535" fill="#666977"/><circle cx="1903.77" cy="138.307" r=".535" fill="#666977"/><circle cx="1519.71" cy="127.617" r=".535" fill="#666977"/><circle cx="1282.92" cy="66.949" r=".535" fill="#666977"/><circle cx="1594.55" cy="106.77" r=".535" fill="#666977"/><circle cx="1425.1" cy="140.445" r=".535" fill="#666977"/><circle cx="1386.08" cy="141.514" r=".535" fill="#666977"/><circle cx="1424.04" cy="235.592" r=".535" fill="#666977"/><circle cx="1378.87" cy="222.761" r=".535" fill="#666977"/><circle cx="1343.06" cy="208.028" r=".535" fill="#666977"/><circle cx="1325.95" cy="204.821" r=".535" fill="#666977"/><circle cx="1340.12" cy="224.097" r=".535" fill="#666977"/><circle cx="1301.1" cy="278.618" r=".535" fill="#666977"/><circle cx="1256.73" cy="139.376" r=".535" fill="#666977"/><path fill="url(#R)" d="M814.549 1084.54 796.91 476.524c351.71-54.654 522.97 39.269 565.66 69.354 14.03 9.889 21.14 13.704 28.86 31.403 20.58 47.172 62.14 151.031 93.54 256.035 28.09 93.917 51.72 189.354 64.54 251.224z"/><path fill="url(#S)" d="M814.549 1084.54 796.91 476.524c351.71-54.654 522.97 39.269 565.66 69.354 14.03 9.889 21.14 13.704 28.86 31.403 20.58 47.172 62.14 151.031 93.54 256.035 28.09 93.917 51.72 189.354 64.54 251.224z"/><path fill="url(#T)" d="M814.549 1084.54 796.91 476.524c351.71-54.654 522.97 39.269 565.66 69.354 14.03 9.889 21.14 13.704 28.86 31.403 20.58 47.172 62.14 151.031 93.54 256.035 28.09 93.917 51.72 189.354 64.54 251.224z"/><path fill="url(#U)" d="M814.549 1084.54 796.91 476.524c351.71-54.654 522.97 39.269 565.66 69.354 14.03 9.889 21.14 13.704 28.86 31.403 20.58 47.172 62.14 151.031 93.54 256.035 28.09 93.917 51.72 189.354 64.54 251.224z"/><path fill="url(#V)" d="M814.549 1084.54 796.91 476.524c351.71-54.654 522.97 39.269 565.66 69.354 14.03 9.889 21.14 13.704 28.86 31.403 20.58 47.172 62.14 151.031 93.54 256.035 28.09 93.917 51.72 189.354 64.54 251.224z"/><path fill="url(#W)" d="M814.549 1084.54 796.91 476.524c351.71-54.654 522.97 39.269 565.66 69.354 14.03 9.889 21.14 13.704 28.86 31.403 20.58 47.172 62.14 151.031 93.54 256.035 28.09 93.917 51.72 189.354 64.54 251.224z"/><path fill="url(#X)" d="M814.549 1084.54 796.91 476.524c351.71-54.654 522.97 39.269 565.66 69.354 14.03 9.889 21.14 13.704 28.86 31.403 20.58 47.172 62.14 151.031 93.54 256.035 28.09 93.917 51.72 189.354 64.54 251.224z"/><path fill="url(#Y)" d="M814.549 1084.54 796.91 476.524c351.71-54.654 522.97 39.269 565.66 69.354 14.03 9.889 21.14 13.704 28.86 31.403 20.58 47.172 62.14 151.031 93.54 256.035 28.09 93.917 51.72 189.354 64.54 251.224z"/><path fill="url(#Z)" d="M814.549 1084.54 796.91 476.524c351.71-54.654 522.97 39.269 565.66 69.354 14.03 9.889 21.14 13.704 28.86 31.403 20.58 47.172 62.14 151.031 93.54 256.035 28.09 93.917 51.72 189.354 64.54 251.224z"/><path fill="url(#aa)" d="M796.911 476.524c351.709-54.655 522.969 39.268 565.659 69.354 14.03 9.888 21.14 13.705 28.86 31.404 20.58 47.171 62.14 151.03 93.54 256.035 28.09 93.916 51.72 189.353 64.54 251.223h-2.58c-12.93-61.92-36.33-156.244-64.1-249.085-31.4-105.004-72.96-208.863-93.54-256.035-7.72-17.699-14.83-21.516-28.86-31.404-42.6-30.023-213.23-123.618-563.467-69.692z"/><path fill="url(#ab)" d="M796.911 476.524c351.709-54.655 522.969 39.268 565.659 69.354 14.03 9.888 21.14 13.705 28.86 31.404 20.58 47.172 62.14 151.031 93.54 256.035 28.09 93.916 51.72 189.353 64.54 251.223h-1.35c-12.81-61.76-36.39-157.023-64.43-250.77-31.35-104.815-72.83-208.487-93.37-255.574-7.71-17.667-14.81-21.476-28.81-31.346-42.62-30.031-213.55-123.779-564.608-69.234z"/><circle cx="1000.96" cy="668.617" r=".535" fill="#767895"/><circle cx="992.41" cy="670.421" r=".535" fill="#767895"/><circle cx="1097.84" cy="642.226" r=".535" fill="#767895"/><circle cx="974.772" cy="695.009" r=".535" fill="#767895"/><circle cx="1104.66" cy="506.457" r=".535" fill="#767895"/><circle cx="1027.29" cy="539.331" r=".535" fill="#767895"/><circle cx="1063.64" cy="514.576" r=".535" fill="#767895"/><circle cx="1014.46" cy="562.716" r=".535" fill="#767895"/><circle cx="1019.67" cy="585.166" r=".535" fill="#767895"/><circle cx="988.135" cy="616.168" r=".535" fill="#767895"/><circle cx="831.324" cy="696.078" r=".535" fill="#767895"/><circle cx="877.823" cy="768.239" r=".535" fill="#767895"/><circle cx="927.333" cy="758.083" r=".535" fill="#767895"/><circle cx="869.338" cy="824.096" r=".535" fill="#767895"/><circle cx="851.164" cy="799.508" r=".535" fill="#767895"/><circle cx="994.683" cy="754.074" r=".535" fill="#767895"/><circle cx="1074.86" cy="744.185" r=".535" fill="#767895"/><circle cx="1001.9" cy="839.864" r=".535" fill="#767895"/><circle cx="1183.37" cy="691.268" r="1.069" fill="#9597c0"/><circle cx="1081.96" cy="610.088" r=".802" fill="#9597c0"/><circle cx="1057.09" cy="656.524" r=".802" fill="#9597c0"/><circle cx="841.944" cy="723.873" r=".802" fill="#9597c0"/><path fill="url(#ac)" d="M34.685 837.258c-2.272-12.427-1.875-17.253 4.143-24.521C89.607 751.401 195.576 657.86 235.53 622.983c39.955-34.878 123.207-105.568 130.423-111.314s16.703-2.405 23.919 5.746c5.773 6.521 20.49 21.425 27.127 28.062 47.973 50.512 118.53 104.633 180.267 148.196s168.918 103.535 288.641 144.721c94.547 32.526 170.412 46.755 185.192 49.528l.62.116c13.16 2.472 11.96 15.033 9.42 20.378s-35.81 56.392-44.76 69.755c-7.17 10.69-49.582 73.139-69.893 103.029H146.801c-26.994-44.1-39.956-67.88-63.207-115.857-23.252-47.974-46.637-115.657-48.909-128.085"/><path fill="url(#ad)" d="M34.685 837.258c-2.272-12.427-1.875-17.253 4.143-24.521C89.607 751.401 195.576 657.86 235.53 622.983c39.955-34.878 123.207-105.568 130.423-111.314s16.703-2.405 23.919 5.746c5.773 6.521 20.49 21.425 27.127 28.062 47.973 50.512 118.53 104.633 180.267 148.196s168.918 103.535 288.641 144.721c94.547 32.526 170.412 46.755 185.192 49.528l.62.116c13.16 2.472 11.96 15.033 9.42 20.378s-35.81 56.392-44.76 69.755c-7.17 10.69-49.582 73.139-69.893 103.029H146.801c-26.994-44.1-39.956-67.88-63.207-115.857-23.252-47.974-46.637-115.657-48.909-128.085"/><path fill="url(#ae)" d="M34.685 837.258c-2.272-12.427-1.875-17.253 4.143-24.521C89.607 751.401 195.576 657.86 235.53 622.983c39.955-34.878 123.207-105.568 130.423-111.314s16.703-2.405 23.919 5.746c5.773 6.521 20.49 21.425 27.127 28.062 47.973 50.512 118.53 104.633 180.267 148.196s168.918 103.535 288.641 144.721c94.547 32.526 170.412 46.755 185.192 49.528l.62.116c13.16 2.472 11.96 15.033 9.42 20.378s-35.81 56.392-44.76 69.755c-7.17 10.69-49.582 73.139-69.893 103.029H146.801c-26.994-44.1-39.956-67.88-63.207-115.857-23.252-47.974-46.637-115.657-48.909-128.085"/><path fill="url(#af)" d="M34.685 837.258c-2.272-12.427-1.875-17.253 4.143-24.521C89.607 751.401 195.576 657.86 235.53 622.983c39.955-34.878 123.207-105.568 130.423-111.314s16.703-2.405 23.919 5.746c5.773 6.521 20.49 21.425 27.127 28.062 47.973 50.512 118.53 104.633 180.267 148.196s168.918 103.535 288.641 144.721c94.547 32.526 170.412 46.755 185.192 49.528l.62.116c13.16 2.472 11.96 15.033 9.42 20.378s-35.81 56.392-44.76 69.755c-7.17 10.69-49.582 73.139-69.893 103.029H146.801c-26.994-44.1-39.956-67.88-63.207-115.857-23.252-47.974-46.637-115.657-48.909-128.085"/><path fill="url(#ag)" d="M34.685 837.258c-2.272-12.427-1.875-17.253 4.143-24.521C89.607 751.401 195.576 657.86 235.53 622.983c39.955-34.878 123.207-105.568 130.423-111.314s16.703-2.405 23.919 5.746c5.773 6.521 20.49 21.425 27.127 28.062 47.973 50.512 118.53 104.633 180.267 148.196s168.918 103.535 288.641 144.721c94.547 32.526 170.412 46.755 185.192 49.528l.62.116c13.16 2.472 11.96 15.033 9.42 20.378s-35.81 56.392-44.76 69.755c-7.17 10.69-49.582 73.139-69.893 103.029H146.801c-26.994-44.1-39.956-67.88-63.207-115.857-23.252-47.974-46.637-115.657-48.909-128.085"/><path fill="url(#ah)" d="M34.685 837.258c-2.272-12.427-1.875-17.253 4.143-24.521C89.607 751.401 195.576 657.86 235.53 622.983c39.955-34.878 123.207-105.568 130.423-111.314s16.703-2.405 23.919 5.746c5.773 6.521 20.49 21.425 27.127 28.062 47.973 50.512 118.53 104.633 180.267 148.196s168.918 103.535 288.641 144.721c94.547 32.526 170.412 46.755 185.192 49.528l.62.116c13.16 2.472 11.96 15.033 9.42 20.378s-35.81 56.392-44.76 69.755c-7.17 10.69-49.582 73.139-69.893 103.029H146.801c-26.994-44.1-39.956-67.88-63.207-115.857-23.252-47.974-46.637-115.657-48.909-128.085"/><path fill="url(#ai)" d="M34.685 837.258c-2.272-12.427-1.875-17.253 4.143-24.521C89.607 751.401 195.576 657.86 235.53 622.983c39.955-34.878 123.207-105.568 130.423-111.314s16.703-2.405 23.919 5.746c5.773 6.521 20.49 21.425 27.127 28.062 47.973 50.512 118.53 104.633 180.267 148.196s168.918 103.535 288.641 144.721c94.547 32.526 170.412 46.755 185.192 49.528l.62.116c13.16 2.472 11.96 15.033 9.42 20.378s-35.81 56.392-44.76 69.755c-7.17 10.69-49.582 73.139-69.893 103.029H146.801c-26.994-44.1-39.956-67.88-63.207-115.857-23.252-47.974-46.637-115.657-48.909-128.085"/><path fill="url(#aj)" d="M34.685 837.258c-2.272-12.427-1.875-17.253 4.143-24.521C89.607 751.401 195.576 657.86 235.53 622.983c39.955-34.878 123.207-105.568 130.423-111.314s16.703-2.405 23.919 5.746c5.773 6.521 20.49 21.425 27.127 28.062 47.973 50.512 118.53 104.633 180.267 148.196s168.918 103.535 288.641 144.721c94.547 32.526 170.412 46.755 185.192 49.528l.62.116c13.16 2.472 11.96 15.033 9.42 20.378s-35.81 56.392-44.76 69.755c-7.17 10.69-49.582 73.139-69.893 103.029H146.801c-26.994-44.1-39.956-67.88-63.207-115.857-23.252-47.974-46.637-115.657-48.909-128.085"/><path fill="url(#ak)" d="M34.685 837.258c-2.272-12.427-1.875-17.253 4.143-24.521C89.607 751.401 195.576 657.86 235.53 622.983c39.955-34.878 123.207-105.568 130.423-111.314s16.703-2.405 23.919 5.746c5.773 6.521 20.49 21.425 27.127 28.062 47.973 50.512 118.53 104.633 180.267 148.196s168.918 103.535 288.641 144.721c94.547 32.526 170.412 46.755 185.192 49.528l.62.116c13.16 2.472 11.96 15.033 9.42 20.378s-35.81 56.392-44.76 69.755c-7.17 10.69-49.582 73.139-69.893 103.029H146.801c-26.994-44.1-39.956-67.88-63.207-115.857-23.252-47.974-46.637-115.657-48.909-128.085"/><path fill="url(#al)" d="M34.685 837.258c-2.272-12.427-1.875-17.253 4.143-24.521C89.607 751.401 195.576 657.86 235.53 622.983c39.955-34.878 123.207-105.568 130.423-111.314s16.703-2.405 23.919 5.746c5.773 6.521 20.49 21.425 27.127 28.062 47.973 50.512 118.53 104.633 180.267 148.196s168.918 103.535 288.641 144.721c94.547 32.526 170.412 46.755 185.192 49.528l.62.116c13.16 2.472 11.96 15.033 9.42 20.378s-35.81 56.392-44.76 69.755c-7.17 10.69-49.582 73.139-69.893 103.029H146.801c-26.994-44.1-39.956-67.88-63.207-115.857-23.252-47.974-46.637-115.657-48.909-128.085"/><path fill="url(#am)" d="M34.685 837.258c-2.272-12.427-1.875-17.253 4.143-24.521C89.607 751.401 195.576 657.86 235.53 622.983c39.955-34.878 123.207-105.568 130.423-111.314s16.703-2.405 23.919 5.746c5.773 6.521 20.49 21.425 27.127 28.062 47.973 50.512 118.53 104.633 180.267 148.196s168.918 103.535 288.641 144.721c94.547 32.526 170.412 46.755 185.192 49.528l.62.116c13.16 2.472 11.96 15.033 9.42 20.378s-35.81 56.392-44.76 69.755c-7.17 10.69-49.582 73.139-69.893 103.029H146.801c-26.994-44.1-39.956-67.88-63.207-115.857-23.252-47.974-46.637-115.657-48.909-128.085"/><path fill="url(#an)" d="M34.685 837.258c-2.272-12.427-1.875-17.253 4.143-24.521C89.607 751.401 195.576 657.86 235.53 622.983c39.955-34.878 123.207-105.568 130.423-111.314s16.703-2.405 23.919 5.746c5.773 6.521 20.49 21.425 27.127 28.062 47.973 50.512 118.53 104.633 180.267 148.196s168.918 103.535 288.641 144.721c94.547 32.526 170.412 46.755 185.192 49.528l.62.116c13.16 2.472 11.96 15.033 9.42 20.378s-35.81 56.392-44.76 69.755c-7.17 10.69-49.582 73.139-69.893 103.029H146.801c-26.994-44.1-39.956-67.88-63.207-115.857-23.252-47.974-46.637-115.657-48.909-128.085"/><path fill="url(#ao)" d="M365.953 511.669c6.295-5.012 14.317-3.11 21.052 2.867-6.284-4.695-13.391-5.835-19.083-1.302-7.197 5.731-90.219 76.226-130.064 111.007S92.24 753.173 41.6 814.341c-2.773 3.641-6.247 8.051-3.183 22.607 2.265 12.393 25.587 79.891 48.775 127.732s36.114 71.56 63.033 115.54l-3.425.98c-26.993-44.1-39.955-67.88-63.207-115.858-23.251-47.973-46.637-115.656-48.908-128.084-2.64-12.06-1.875-17.253 4.142-24.521 50.78-61.336 156.748-154.877 196.704-189.755 39.955-34.877 123.206-105.567 130.422-111.313"/><path fill="url(#ap)" d="M365.953 511.669c6.295-5.012 14.317-3.11 21.052 2.867-6.284-4.695-13.391-5.835-19.083-1.302-7.197 5.731-90.219 76.226-130.064 111.007S92.24 753.173 41.6 814.341c-2.773 3.641-6.247 8.051-3.183 22.607 2.265 12.393 25.587 79.891 48.775 127.732s36.114 71.56 63.033 115.54l-3.425.98c-26.993-44.1-39.955-67.88-63.207-115.858-23.251-47.973-46.637-115.656-48.908-128.084-2.64-12.06-1.875-17.253 4.142-24.521 50.78-61.336 156.748-154.877 196.704-189.755 39.955-34.877 123.206-105.567 130.422-111.313"/><ellipse cx="297.32" cy="678.224" fill="#42455a" rx="1.014" ry=".747" transform="rotate(49.228 297.32 678.224)"/><ellipse cx="817.007" cy="833.096" fill="#42455a" rx="1.014" ry=".747" transform="rotate(49.228 817.007 833.096)"/><ellipse cx="895.049" cy="898.134" fill="#42455a" rx=".814" ry=".747" transform="rotate(49.228 895.049 898.134)"/><ellipse cx="776.033" cy="995.776" fill="#42455a" rx=".814" ry=".747" transform="rotate(49.228 776.033 995.776)"/><ellipse cx="864.51" cy="930.895" fill="#42455a" rx=".814" ry=".747" transform="rotate(49.228 864.51 930.895)"/><ellipse cx="853.785" cy="905.238" fill="#42455a" rx=".814" ry=".747" transform="rotate(49.228 853.785 905.238)"/><ellipse cx="730.683" cy="943.784" fill="#42455a" rx=".814" ry=".747" transform="rotate(49.228 730.683 943.784)"/><ellipse cx="273.936" cy="799.196" fill="#42455a" rx=".814" ry=".747" transform="rotate(49.228 273.936 799.196)"/><ellipse cx="443.913" cy="832.272" fill="#42455a" rx=".814" ry=".747" transform="rotate(49.228 443.913 832.272)"/><ellipse cx="182.265" cy="768.07" fill="#42455a" rx=".814" ry=".747" transform="rotate(49.228 182.265 768.07)"/><ellipse cx="708.901" cy="969.631" fill="#42455a" rx=".814" ry=".747" transform="rotate(49.228 708.901 969.631)"/><ellipse cx="472.893" cy="884.474" fill="#42455a" rx="1.196" ry=".747" transform="rotate(49.228 472.893 884.474)"/><ellipse cx="444.162" cy="634.233" fill="#4c4e65" rx="1.196" ry=".747" transform="rotate(49.228 444.162 634.233)"/><ellipse cx="102.578" cy="975.174" fill="#4c4e65" rx="1.196" ry=".747" transform="rotate(49.228 102.578 975.174)"/><ellipse cx="99.885" cy="835.002" fill="#4c4e65" rx="1.196" ry=".747" transform="rotate(49.228 99.885 835.002)"/><ellipse cx="340.952" cy="668.894" fill="#727485" rx="1.196" ry=".747" transform="rotate(49.228 340.952 668.894)"/><ellipse cx="433.959" cy="758.426" fill="#727485" rx="1.196" ry=".747" transform="rotate(49.228 433.959 758.426)"/><ellipse cx="460.418" cy="998.273" fill="#2f3245" rx="1.196" ry=".747" transform="rotate(49.228 460.418 998.273)"/><ellipse cx="244.923" cy="921.153" fill="#2f3245" rx=".798" ry=".747" transform="rotate(49.228 244.923 921.153)"/><ellipse cx="635.619" cy="869.305" fill="#727485" rx=".798" ry=".747" transform="rotate(49.228 635.619 869.305)"/><ellipse cx="323.792" cy="916.502" fill="#2f3245" rx=".798" ry=".747" transform="rotate(49.228 323.792 916.502)"/><ellipse cx="166.376" cy="833.492" fill="#2f3245" rx=".798" ry=".747" transform="rotate(49.228 166.376 833.492)"/><ellipse cx="224.104" cy="768.996" fill="#2f3245" rx=".798" ry=".747" transform="rotate(49.228 224.104 768.996)"/><ellipse cx="313.719" cy="706.544" fill="#2f3245" rx=".798" ry=".747" transform="rotate(49.228 313.719 706.544)"/><ellipse cx="367.623" cy="634.651" fill="#606374" rx=".798" ry=".747" transform="rotate(49.228 367.623 634.651)"/><ellipse cx="154.35" cy="804.093" fill="#2f3245" rx=".798" ry=".747" transform="rotate(49.228 154.35 804.093)"/><ellipse cx="243.881" cy="764.653" fill="#686b7e" rx=".798" ry=".747" transform="rotate(49.228 243.881 764.653)"/><ellipse cx="544.819" cy="914.319" fill="#686b7e" rx=".798" ry=".747" transform="rotate(49.228 544.819 914.319)"/><ellipse cx="284.505" cy="840.489" fill="#686b7e" rx=".798" ry=".747" transform="rotate(49.228 284.505 840.489)"/><ellipse cx="284.505" cy="840.256" fill="#3c3e53" rx=".798" ry=".747" transform="rotate(49.228 284.505 840.256)"/><ellipse cx="536.534" cy="954.826" fill="#686b7e" rx=".798" ry=".747" transform="rotate(49.228 536.534 954.826)"/><ellipse cx="521.265" cy="747.165" fill="#686b7e" rx=".798" ry=".747" transform="rotate(49.228 521.265 747.165)"/><ellipse cx="341.13" cy="970.594" fill="#191c2e" rx=".798" ry=".747" transform="rotate(49.228 341.13 970.594)"/><ellipse cx="452.044" cy="1034.2" fill="#191c2e" rx=".798" ry=".747" transform="rotate(49.228 452.044 1034.2)"/><ellipse cx="637.792" cy="821.196" fill="#686b7e" rx=".798" ry=".747" transform="rotate(49.228 637.792 821.196)"/><ellipse cx="616.213" cy="853.679" fill="#686b7e" rx=".798" ry=".747" transform="rotate(49.228 616.213 853.679)"/><ellipse cx="552.56" cy="789.125" fill="#686b7e" rx=".798" ry=".747" transform="rotate(49.228 552.56 789.125)"/><ellipse cx="525.443" cy="841.464" fill="#686b7e" rx=".798" ry=".747" transform="rotate(49.228 525.443 841.464)"/><ellipse cx="499.652" cy="937.081" fill="#686b7e" rx=".798" ry=".747" transform="rotate(49.228 499.652 937.081)"/><ellipse cx="416.8" cy="851.495" fill="#686b7e" rx=".798" ry=".747" transform="rotate(49.228 416.8 851.495)"/><path fill="url(#aq)" d="M80.888 767.904c-12.31 13.195-36.783 41.796-40.59 46.203l-.302.356c-1.52 1.844-2.995 4.351-3.695 8.125-.701 3.784-.84 7.404.785 14.403l.255 1.07c2.551 10.492 7.227 25.755 10 33.19l.539 1.43 4.865 12.839c5.524 14.537 12.343 32.346 14.304 36.987l.827 1.942c5.18 12.063 25.396 58.126 37.034 79.521 12.437 22.87 35.869 65.19 43.728 76.12l-.434.31-.434.31c-7.909-10.99-31.383-53.39-43.8-76.23-11.664-21.442-31.898-67.552-37.078-79.616l-.83-1.941c-2.624-6.214-13.884-35.838-19.182-49.862l-.539-1.433c-2.777-7.445-7.473-22.759-10.04-33.318l-.257-1.077c-1.648-7.098-1.53-10.872-.794-14.839.737-3.976 2.301-6.647 3.921-8.612l.305-.359c3.837-4.441 29.125-32.348 41.412-45.519"/><path fill="url(#ar)" fill-opacity=".5" d="M546.889 12.294c.106-5.131 3.608-11.938 5.345-14.7l480.806.252c14.3 82.45 48.64 174.938 70.15 222.376 13.49 29.74 8.55 37.951-2.54 55.056-115.455 183.474-180.266 423.874-181.869 431.357s-2.673 19.777-20.847 5.88c-18.173-13.898-153.139-115.323-257.104-316.97C536.729 193.63 546.755 18.708 546.889 12.294"/><path fill="url(#as)" d="M546.889 12.294c.106-5.131 3.608-11.938 5.345-14.7l480.806.252c14.3 82.45 48.64 174.938 70.15 222.376 13.49 29.74 8.55 37.951-2.54 55.056-115.455 183.474-180.266 423.874-181.869 431.357s-2.673 19.777-20.847 5.88c-18.173-13.898-153.139-115.323-257.104-316.97C536.729 193.63 546.755 18.708 546.889 12.294"/><path fill="url(#at)" d="M546.889 12.294c.106-5.131 3.608-11.938 5.345-14.7l480.806.252c14.3 82.45 48.64 174.938 70.15 222.376 13.49 29.74 8.55 37.951-2.54 55.056-115.455 183.474-180.266 423.874-181.869 431.357s-2.673 19.777-20.847 5.88c-18.173-13.898-153.139-115.323-257.104-316.97C536.729 193.63 546.755 18.708 546.889 12.294"/><path fill="url(#au)" d="M546.889 12.294c.106-5.131 3.608-11.938 5.345-14.7l480.806.252c14.3 82.45 48.64 174.938 70.15 222.376 13.49 29.74 8.55 37.951-2.54 55.056-115.455 183.474-180.266 423.874-181.869 431.357s-2.673 19.777-20.847 5.88c-18.173-13.898-153.139-115.323-257.104-316.97C536.729 193.63 546.755 18.708 546.889 12.294"/><path fill="url(#av)" d="M546.889 12.294c.106-5.131 3.608-11.938 5.345-14.7l480.806.252c14.3 82.45 48.64 174.938 70.15 222.376 13.49 29.74 8.55 37.951-2.54 55.056-115.455 183.474-180.266 423.874-181.869 431.357s-2.673 19.777-20.847 5.88c-18.173-13.898-153.139-115.323-257.104-316.97C536.729 193.63 546.755 18.708 546.889 12.294"/><path fill="url(#aw)" d="M1033.04-2.154c14.3 82.45 48.64 174.938 70.15 222.376 13.49 29.74 8.55 37.951-2.54 55.056-115.455 183.473-180.265 423.873-181.869 431.357-1.262 5.891-2.193 14.76-11.397 11.49 3.395-1.927 4.111-7.419 4.983-11.49 1.604-7.484 71.492-244.275 183.343-431.357 11.09-17.105 15.86-25.666 2.37-55.406-21.51-47.438-55.85-139.926-70.15-222.376z"/><path fill="url(#ax)" d="M1032.76-2.294c1.55 10.552 7.22 40.581 17.47 76.029l1.19 4.103c12.21 41.885 21.15 67.421 30.71 91.07l2.84 6.991c6.31 15.503 11.77 29.925 12.57 31.595l-2.87-5.579c-1.74-3.675-5.37-9.698-11.68-25.21l-2.84-6.995c-9.6-23.731-18.56-49.338-30.78-91.272l-1.19-4.11c-10.28-35.537-15.97-65.66-17.54-76.31z"/><ellipse cx="711.021" cy="352.815" fill="#696c7f" rx=".702" ry=".7"/><ellipse cx="845.988" cy="417.026" fill="#696c7f" rx=".702" ry="1.303"/><ellipse cx="967.691" cy="524.999" fill="#696c7f" rx=".702" ry="1.303"/><ellipse cx="959.296" cy="399.22" fill="#696c7f" rx=".702" ry="1.303"/><ellipse cx="604.649" cy="176.225" fill="#696c7f" rx=".702" ry="1.303"/><ellipse cx="1049.64" cy="159.922" fill="#696c7f" rx=".702" ry="1.303"/><ellipse cx="1016.97" cy="278.485" fill="#696c7f" rx=".504" ry=".935"/><ellipse cx="961.911" cy="339.687" fill="#606275" rx=".504" ry=".935"/><ellipse cx="705.075" cy="66.414" fill="#696c7f" rx=".504" ry=".935"/><ellipse cx="763.337" cy="48.24" fill="#696c7f" rx=".504" ry=".935"/><ellipse cx="1043.43" cy="202.85" fill="#787b8e" rx=".504" ry=".935"/><ellipse cx="1024.98" cy="59.933" fill="#696c7f" rx=".504" ry=".601"/><ellipse cx="966.989" cy="69.555" fill="#9bace2" rx=".504" ry=".601"/><ellipse cx="911.667" cy="91.737" fill="#696c7f" rx=".504" ry=".601"/><ellipse cx="635.32" cy="262.249" fill="#696c7f" rx=".504" ry=".601"/><ellipse cx="755.052" cy="156.815" fill="#696c7f" rx=".504" ry=".601"/><ellipse cx="605.854" cy="75.835" fill="#696c7f" rx=".504" ry=".601"/><ellipse cx="603.948" cy="64.877" fill="#696c7f" rx=".504" ry=".601"/><ellipse cx="580.43" cy="85.724" fill="#696c7f" rx=".504" ry=".601"/><ellipse cx="905.418" cy="22.383" fill="#696c7f" rx=".504" ry=".601"/><ellipse cx="910.659" cy="91.737" fill="#696c7f" rx=".504" ry=".601"/><ellipse cx="1006.34" cy="47.906" fill="#696c7f" rx=".504" ry=".601"/><ellipse cx="770.286" cy="116.726" fill="#696c7f" rx=".504" ry=".601"/><ellipse cx="619.819" cy="208.663" fill="#696c7f" rx=".504" ry=".601"/><ellipse cx="848.593" cy="349.242" fill="#696c7f" rx=".504" ry=".601"/><ellipse cx="944.272" cy="447.059" fill="#696c7f" rx=".504" ry=".601"/><ellipse cx="927.702" cy="440.645" fill="#696c7f" rx=".504" ry=".601"/><ellipse cx="880.459" cy="495.166" fill="#696c7f" rx=".504" ry=".601"/><ellipse cx="959.8" cy="482.337" fill="#696c7f" rx=".504" ry=".601"/><ellipse cx="851.801" cy="357.527" fill="#696c7f" rx=".504" ry=".601"/><ellipse cx="679.418" cy="82.383" fill="#696c7f" rx=".504" ry=".601"/><ellipse cx="806.099" cy="111.514" fill="#9bace2" rx=".504" ry=".601"/><ellipse cx="938.927" cy="259.142" fill="#818496" rx=".504" ry=".601"/><ellipse cx="872.246" cy="290.679" fill="#818496" rx=".504" ry=".601"/><ellipse cx="801.422" cy="239.498" fill="#818496" rx=".504" ry=".601"/><ellipse cx="864.495" cy="224.532" fill="#818496" rx=".504" ry=".601"/><ellipse cx="859.685" cy="225.734" fill="#818496" rx=".504" ry=".601"/><ellipse cx="991.711" cy="169.343" fill="#818496" rx=".504" ry=".601"/><ellipse cx="999.729" cy="136.737" fill="#818496" rx=".504" ry=".601"/><ellipse cx="726.856" cy="397.315" fill="#818496" rx=".504" ry=".601"/><ellipse cx="823.604" cy="467.337" fill="#818496" rx=".504" ry=".601"/><ellipse cx="830.286" cy="515.711" fill="#818496" rx=".504" ry=".601"/><ellipse cx="733.137" cy="236.558" fill="#818496" rx=".504" ry=".601"/><ellipse cx="757.859" cy="293.886" fill="#818496" rx=".504" ry=".601"/><ellipse cx="881.466" cy="158.017" fill="#5a5d72" rx=".504" ry=".601"/></g><defs><radialGradient id="d" cx="0" cy="0" r="1" gradientTransform="rotate(90.845 467.419 994.177)scale(1304.9 1752.95)" gradientUnits="userSpaceOnUse"><stop offset=".574" stop-color="#0d101e" stop-opacity="0"/><stop offset=".764" stop-color="#0d101e"/></radialGradient><radialGradient id="e" cx="0" cy="0" r="1" gradientTransform="rotate(85.106 212.988 494.974)scale(1403.42 1885.29)" gradientUnits="userSpaceOnUse"><stop offset=".51" stop-color="#0d101e" stop-opacity="0"/><stop offset=".751" stop-color="#04050a"/></radialGradient><radialGradient id="f" cx="0" cy="0" r="1" gradientTransform="rotate(16.711 -469.445 2245.89)scale(483.306 409.751)" gradientUnits="userSpaceOnUse"><stop offset=".35" stop-color="#26283a"/><stop offset="1" stop-color="#26283a" stop-opacity="0"/></radialGradient><radialGradient id="g" cx="0" cy="0" r="1" gradientTransform="rotate(48.434 -265.215 1141.7)scale(227.185 287.668)" gradientUnits="userSpaceOnUse"><stop offset=".103" stop-color="#292b3b"/><stop offset="1" stop-color="#292b3b" stop-opacity="0"/></radialGradient><radialGradient id="h" cx="0" cy="0" r="1" gradientTransform="rotate(-8.637 2671.079 -9447.897)scale(341.691 352.814)" gradientUnits="userSpaceOnUse"><stop offset=".219" stop-color="#1e202d"/><stop offset="1" stop-color="#1e202d" stop-opacity="0"/></radialGradient><radialGradient id="i" cx="0" cy="0" r="1" gradientTransform="rotate(241.625 370.76 509.324)scale(352.355 375.74)" gradientUnits="userSpaceOnUse"><stop offset=".083" stop-color="#040409"/><stop offset="1" stop-color="#040409" stop-opacity="0"/></radialGradient><radialGradient id="j" cx="0" cy="0" r="1" gradientTransform="rotate(208.915 965.772 -140.121)scale(256.472 273.493)" gradientUnits="userSpaceOnUse"><stop offset=".083" stop-color="#161925"/><stop offset="1" stop-color="#161925" stop-opacity="0"/></radialGradient><radialGradient id="o" cx="0" cy="0" r="1" gradientTransform="rotate(233.451 248.898 274.687)scale(133.739 29.6201)" gradientUnits="userSpaceOnUse"><stop offset=".261" stop-color="#121523"/><stop offset=".551" stop-color="#121523" stop-opacity="0"/></radialGradient><radialGradient id="r" cx="0" cy="0" r="1" gradientTransform="rotate(226.666 184.71 248.09)scale(155.326 70.5469)" gradientUnits="userSpaceOnUse"><stop offset=".207" stop-color="#0e111f"/><stop offset=".352" stop-color="#0e111f" stop-opacity=".172"/></radialGradient><radialGradient id="t" cx="0" cy="0" r="1" gradientTransform="rotate(230.646 442.517 162.632)scale(134.451 32.6069)" gradientUnits="userSpaceOnUse"><stop offset=".196" stop-color="#262837"/><stop offset=".892" stop-color="#262837" stop-opacity="0"/></radialGradient><radialGradient id="v" cx="0" cy="0" r="1" gradientTransform="rotate(-1.809 11370.047 -12396.04)scale(152.414 130.264)" gradientUnits="userSpaceOnUse"><stop offset=".179" stop-color="#232535"/><stop offset=".547" stop-color="#232535" stop-opacity="0"/></radialGradient><radialGradient id="w" cx="0" cy="0" r="1" gradientTransform="rotate(53.253 -363.73 797.784)scale(198.788 48.2099)" gradientUnits="userSpaceOnUse"><stop offset=".179" stop-color="#242633"/><stop offset=".892" stop-color="#242633" stop-opacity="0"/></radialGradient><radialGradient id="x" cx="0" cy="0" r="1" gradientTransform="rotate(51.61 -273.157 582.907)scale(110.818 32.6926)" gradientUnits="userSpaceOnUse"><stop offset=".006" stop-color="#1f2230"/><stop offset=".892" stop-color="#1f2230" stop-opacity="0"/></radialGradient><radialGradient id="y" cx="0" cy="0" r="1" gradientTransform="rotate(87.955 -22.877 644.695)scale(74.8805 35.6374)" gradientUnits="userSpaceOnUse"><stop offset=".006" stop-color="#272938"/><stop offset=".892" stop-color="#272938" stop-opacity="0"/></radialGradient><radialGradient id="B" cx="0" cy="0" r="1" gradientTransform="rotate(14.72 -2111.972 2753.24)scale(65.2136 31.4379)" gradientUnits="userSpaceOnUse"><stop offset=".21" stop-color="#272938"/><stop offset="1" stop-color="#272938" stop-opacity="0"/></radialGradient><radialGradient id="C" cx="0" cy="0" r="1" gradientTransform="rotate(233.032 450.574 152.71)scale(124.436 41.9055)" gradientUnits="userSpaceOnUse"><stop offset=".107" stop-color="#272937"/><stop offset=".819" stop-color="#272937" stop-opacity="0"/></radialGradient><radialGradient id="D" cx="0" cy="0" r="1" gradientTransform="rotate(-60.434 484.88 -185.196)scale(52.2359 52.9829)" gradientUnits="userSpaceOnUse"><stop offset=".356" stop-color="#232636"/><stop offset="1" stop-color="#232636" stop-opacity="0"/></radialGradient><radialGradient id="E" cx="0" cy="0" r="1" gradientTransform="rotate(52.253 -216.013 937.825)scale(73.3447 26.6854)" gradientUnits="userSpaceOnUse"><stop offset=".299" stop-color="#272938"/><stop offset=".907" stop-color="#272938" stop-opacity="0"/></radialGradient><radialGradient id="I" cx="0" cy="0" r="1" gradientTransform="rotate(132.739 206.375 398.793)scale(57.4951 345.218)" gradientUnits="userSpaceOnUse"><stop offset=".191" stop-color="#272938"/><stop offset=".341" stop-color="#272938" stop-opacity="0"/></radialGradient><radialGradient id="K" cx="0" cy="0" r="1" gradientTransform="rotate(91.125 602.4 593.306)scale(266.242 600.672)" gradientUnits="userSpaceOnUse"><stop offset=".342" stop-color="#313342"/><stop offset=".896" stop-color="#313342" stop-opacity="0"/></radialGradient><radialGradient id="L" cx="0" cy="0" r="1" gradientTransform="rotate(75.391 766.712 1265.215)scale(207.694 468.581)" gradientUnits="userSpaceOnUse"><stop offset=".197" stop-color="#292c3b"/><stop offset=".896" stop-color="#292c3b" stop-opacity="0"/></radialGradient><radialGradient id="S" cx="0" cy="0" r="1" gradientTransform="rotate(12.978 -3452.764 6283.674)scale(140.424 191.426)" gradientUnits="userSpaceOnUse"><stop offset=".274" stop-color="#090b12"/><stop offset="1" stop-color="#181a26" stop-opacity="0"/></radialGradient><radialGradient id="T" cx="0" cy="0" r="1" gradientTransform="rotate(-2.96 19400.052 -27542.47)scale(155.218 211.593)" gradientUnits="userSpaceOnUse"><stop offset=".46" stop-color="#0a0c16"/><stop offset="1" stop-color="#1b1c28" stop-opacity="0"/></radialGradient><radialGradient id="U" cx="0" cy="0" r="1" gradientTransform="rotate(-37.185 1759.032 -1140.915)scale(58.3705 137.776)" gradientUnits="userSpaceOnUse"><stop stop-color="#202335"/><stop offset="1" stop-color="#242836" stop-opacity="0"/></radialGradient><radialGradient id="V" cx="0" cy="0" r="1" gradientTransform="rotate(-45 1534.704 -923.857)scale(75.5925 178.426)" gradientUnits="userSpaceOnUse"><stop stop-color="#202335"/><stop offset="1" stop-color="#242836" stop-opacity="0"/></radialGradient><radialGradient id="X" cx="0" cy="0" r="1" gradientTransform="rotate(83.447 334.29 917.922)scale(159.258 502.522)" gradientUnits="userSpaceOnUse"><stop stop-color="#2b2d3c"/><stop offset="1" stop-color="#212532" stop-opacity="0"/></radialGradient><radialGradient id="Y" cx="0" cy="0" r="1" gradientTransform="rotate(4.06 -8402.934 17076.497)scale(166.118 227.165)" gradientUnits="userSpaceOnUse"><stop stop-color="#232634"/><stop offset="1" stop-color="#212532" stop-opacity="0"/></radialGradient><radialGradient id="Z" cx="0" cy="0" r="1" gradientTransform="rotate(153.213 635.16 459.07)scale(123.348 389.211)" gradientUnits="userSpaceOnUse"><stop stop-color="#3b3d4f"/><stop offset="1" stop-color="#1c1c29" stop-opacity="0"/></radialGradient><radialGradient id="ad" cx="0" cy="0" r="1" gradientTransform="rotate(207.515 472.368 222.584)scale(1240.33 392.181)" gradientUnits="userSpaceOnUse"><stop offset=".394" stop-color="#2c2f42" stop-opacity="0"/><stop offset=".411" stop-color="#2c2f42"/><stop offset=".81" stop-color="#2c2f42" stop-opacity="0"/></radialGradient><radialGradient id="ae" cx="0" cy="0" r="1" gradientTransform="rotate(186.994 357.774 472.267)scale(289.727 162.092)" gradientUnits="userSpaceOnUse"><stop stop-color="#161b35"/><stop offset=".776" stop-color="#1b1c2e" stop-opacity="0"/></radialGradient><radialGradient id="af" cx="0" cy="0" r="1" gradientTransform="rotate(15.476 -2128.321 2086.258)scale(753.187 498.997)" gradientUnits="userSpaceOnUse"><stop offset=".366" stop-color="#1b1d2f" stop-opacity="0"/><stop offset=".829" stop-color="#070812"/></radialGradient><radialGradient id="ag" cx="0" cy="0" r="1" gradientTransform="rotate(-2.506 25313.407 -9081.22)scale(541.987 415.205)" gradientUnits="userSpaceOnUse"><stop offset=".19" stop-color="#070813"/><stop offset=".781" stop-color="#1e2032" stop-opacity="0"/></radialGradient><radialGradient id="ah" cx="0" cy="0" r="1" gradientTransform="rotate(6.725 -4144.327 5443.014)scale(949.425 568.88)" gradientUnits="userSpaceOnUse"><stop offset=".758" stop-color="#1d1f30" stop-opacity="0"/><stop offset="1" stop-color="#070813"/></radialGradient><radialGradient id="ai" cx="0" cy="0" r="1" gradientTransform="rotate(36.797 -651.546 960.179)scale(333.754 303.752)" gradientUnits="userSpaceOnUse"><stop offset=".025" stop-color="#2d3046"/><stop offset=".923" stop-color="#212436" stop-opacity="0"/></radialGradient><radialGradient id="aj" cx="0" cy="0" r="1" gradientTransform="rotate(-34.546 1117.844 -78.565)scale(377.04 246.628)" gradientUnits="userSpaceOnUse"><stop offset=".048" stop-color="#191c2d"/><stop offset=".923" stop-color="#191c2d" stop-opacity="0"/></radialGradient><radialGradient id="ak" cx="0" cy="0" r="1" gradientTransform="rotate(209.221 460.248 213.966)scale(608.783 188.674)" gradientUnits="userSpaceOnUse"><stop offset=".75" stop-color="#4d526d"/><stop offset=".776" stop-color="#3c4056" stop-opacity="0"/></radialGradient><radialGradient id="al" cx="0" cy="0" r="1" gradientTransform="rotate(214.351 392.85 275.31)scale(269.98 83.6722)" gradientUnits="userSpaceOnUse"><stop stop-color="#2d3044"/><stop offset=".776" stop-color="#2d3044" stop-opacity="0"/></radialGradient><radialGradient id="an" cx="0" cy="0" r="1" gradientTransform="rotate(201.538 626.88 346.56)scale(369.816 207.802)" gradientUnits="userSpaceOnUse"><stop stop-color="#242639"/><stop offset=".416" stop-color="#242639" stop-opacity=".76"/><stop offset=".821" stop-color="#242639" stop-opacity="0"/></radialGradient><radialGradient id="ap" cx="0" cy="0" r="1" gradientTransform="rotate(241.708 385.773 490.744)scale(232.038 143.405)" gradientUnits="userSpaceOnUse"><stop offset=".07" stop-color="#070914"/><stop offset=".844" stop-opacity="0"/></radialGradient><radialGradient id="as" cx="0" cy="0" r="1" gradientTransform="rotate(70.892 366.927 778.464)scale(777.254 485.841)" gradientUnits="userSpaceOnUse"><stop offset=".806" stop-color="#2b2f44" stop-opacity="0"/><stop offset=".817" stop-color="#2b2f44"/></radialGradient><radialGradient id="au" cx="0" cy="0" r="1" gradientTransform="rotate(56.783 195.809 958.03)scale(718.143 322.037)" gradientUnits="userSpaceOnUse"><stop offset=".736" stop-color="#393d51" stop-opacity="0"/><stop offset=".869" stop-color="#454859"/><stop offset=".881" stop-color="#505365" stop-opacity="0"/></radialGradient><radialGradient id="av" cx="0" cy="0" r="1" gradientTransform="rotate(64.715 344.32 880.271)scale(806.924 499.357)" gradientUnits="userSpaceOnUse"><stop offset=".803" stop-color="#4d526d" stop-opacity="0"/><stop offset=".81" stop-color="#4d526d"/></radialGradient><linearGradient id="b" x1="959.997" x2="900.725" y1="0" y2="687.392" gradientUnits="userSpaceOnUse"><stop offset=".093" stop-color="#242635"/><stop offset=".397" stop-color="#222532"/><stop offset=".777" stop-color="#242633"/></linearGradient><linearGradient id="c" x1="1920" x2="1120.95" y1="679.909" y2="664.943" gradientUnits="userSpaceOnUse"><stop offset=".078" stop-color="#11121f"/><stop offset=".333" stop-color="#161824"/><stop offset=".607" stop-color="#181a25"/><stop offset="1" stop-color="#232633" stop-opacity="0"/></linearGradient><linearGradient id="k" x1="112.19" x2="31.478" y1="682.047" y2="741.913" gradientUnits="userSpaceOnUse"><stop offset=".03" stop-color="#0d101e"/><stop offset=".285" stop-color="#141931"/><stop offset=".595" stop-color="#141931"/><stop offset=".903" stop-color="#0d101e"/></linearGradient><linearGradient id="l" x1="155.486" x2="-15.56" y1="820.488" y2="593.852" gradientUnits="userSpaceOnUse"><stop offset=".568" stop-color="#0d101e" stop-opacity="0"/><stop offset=".886" stop-color="#0d101e"/></linearGradient><linearGradient id="m" x1="169.384" x2="76.705" y1="574.074" y2="651.996" gradientUnits="userSpaceOnUse"><stop offset=".306" stop-color="#0d101e"/><stop offset=".57" stop-color="#171b30"/><stop offset=".811" stop-color="#0d101e"/></linearGradient><linearGradient id="n" x1="309.428" x2="-15.357" y1="734.965" y2="537.429" gradientUnits="userSpaceOnUse"><stop offset=".551" stop-color="#0d101e" stop-opacity="0"/><stop offset=".819" stop-color="#0d101e"/></linearGradient><linearGradient id="p" x1="144.262" x2="65.498" y1="412.649" y2="484.262" gradientUnits="userSpaceOnUse"><stop offset=".331" stop-color="#0d101e"/><stop offset=".648" stop-color="#171b30"/><stop offset=".904" stop-color="#0d101e"/></linearGradient><linearGradient id="q" x1="195.454" x2="15.27" y1="535.099" y2="462.402" gradientUnits="userSpaceOnUse"><stop offset=".207" stop-color="#101321"/><stop offset=".352" stop-color="#101321" stop-opacity=".172"/><stop offset=".503" stop-color="#0d101e" stop-opacity="0"/><stop offset=".815" stop-color="#0d101e"/></linearGradient><linearGradient id="s" x1="502.374" x2="400.122" y1="451.585" y2="532.519" gradientUnits="userSpaceOnUse"><stop offset=".239" stop-color="#252737"/><stop offset=".403" stop-color="#2c3048"/><stop offset=".685" stop-color="#2c3048"/><stop offset=".79" stop-color="#222432"/></linearGradient><linearGradient id="u" x1="587.48" x2="371.532" y1="670.204" y2="380.563" gradientUnits="userSpaceOnUse"><stop offset=".041" stop-color="#262836"/><stop offset=".137" stop-color="#262836" stop-opacity="0"/><stop offset=".872" stop-color="#1f2130" stop-opacity="0"/><stop offset=".985" stop-color="#1f2130"/></linearGradient><linearGradient id="z" x1="572.311" x2="463.905" y1="377.494" y2="453.75" gradientUnits="userSpaceOnUse"><stop offset=".354" stop-color="#262839"/><stop offset=".483" stop-color="#2c3048"/><stop offset=".673" stop-color="#2c3048"/><stop offset=".771" stop-color="#252737"/></linearGradient><linearGradient id="A" x1="652.975" x2="428.462" y1="615.767" y2="315.246" gradientUnits="userSpaceOnUse"><stop offset=".04" stop-color="#282a39"/><stop offset=".14" stop-color="#282a39" stop-opacity="0"/><stop offset=".853" stop-color="#252739" stop-opacity="0"/><stop offset=".963" stop-color="#252739"/></linearGradient><linearGradient id="F" x1="631.728" x2="516.889" y1="299.514" y2="380.028" gradientUnits="userSpaceOnUse"><stop offset=".402" stop-color="#26283a"/><stop offset=".525" stop-color="#2c3048"/><stop offset=".655" stop-color="#2c3048"/><stop offset=".799" stop-color="#252739"/></linearGradient><linearGradient id="G" x1="713.894" x2="483.744" y1="549.937" y2="241.879" gradientUnits="userSpaceOnUse"><stop offset=".858" stop-color="#26283b" stop-opacity="0"/><stop offset=".96" stop-color="#26283b"/></linearGradient><linearGradient id="H" x1="717.903" x2="521.399" y1="559.558" y2="596.593" gradientUnits="userSpaceOnUse"><stop offset=".191" stop-color="#282a3a"/><stop offset=".341" stop-color="#282a3a" stop-opacity="0"/></linearGradient><linearGradient id="J" x1="1756.91" x2="1688.61" y1="-.668" y2="577.281" gradientUnits="userSpaceOnUse"><stop stop-color="#3b3c4d"/><stop offset=".052" stop-color="#3e4154"/><stop offset=".164" stop-color="#323544"/><stop offset=".349" stop-color="#2d2f3e"/><stop offset=".569" stop-color="#2e3240"/><stop offset=".853" stop-color="#2e3140"/><stop offset=".938" stop-color="#2d2f40"/><stop offset="1" stop-color="#2f3040"/></linearGradient><linearGradient id="M" x1="1756.91" x2="1196.52" y1="-.668" y2="336.632" gradientUnits="userSpaceOnUse"><stop offset=".045" stop-color="#424457"/><stop offset=".551" stop-color="#2f3241"/><stop offset=".881" stop-color="#2d3140"/><stop offset=".988" stop-color="#2c2d39"/></linearGradient><linearGradient id="N" x1="1150.35" x2="1196.52" y1="-21.381" y2="336.632" gradientUnits="userSpaceOnUse"><stop offset=".045" stop-color="#232533"/><stop offset=".865" stop-color="#232533" stop-opacity="0"/></linearGradient><linearGradient id="O" x1="1188.18" x2="1921.54" y1="341.558" y2="198.307" gradientUnits="userSpaceOnUse"><stop offset=".515" stop-color="#4e5265"/><stop offset=".822" stop-color="#33374e"/><stop offset=".989" stop-color="#373b50"/></linearGradient><linearGradient id="P" x1="1145.82" x2="1180.96" y1="0" y2="244.81" gradientUnits="userSpaceOnUse"><stop stop-color="#31354a"/><stop offset="1" stop-color="#31354a" stop-opacity="0"/></linearGradient><linearGradient id="Q" x1="1388.89" x2="1930.63" y1="236.391" y2="236.391" gradientUnits="userSpaceOnUse"><stop stop-color="#2f3241"/><stop offset="1" stop-color="#5a5c74"/></linearGradient><linearGradient id="R" x1="804.394" x2="1478.42" y1="720.533" y2="699.152" gradientUnits="userSpaceOnUse"><stop stop-color="#292c3d"/><stop offset=".003" stop-color="#2d3144"/><stop offset=".063" stop-color="#2f3445"/><stop offset=".56" stop-color="#1d202c"/><stop offset=".954" stop-color="#1b1a28"/></linearGradient><linearGradient id="W" x1="1208.07" x2="1200.06" y1="1053.54" y2="772.152" gradientUnits="userSpaceOnUse"><stop offset=".105" stop-color="#040409"/><stop offset=".408" stop-color="#0c0e1a"/><stop offset="1" stop-color="#1d1f2c" stop-opacity="0"/></linearGradient><linearGradient id="aa" x1="1531.99" x2="786.22" y1="1057.81" y2="427.616" gradientUnits="userSpaceOnUse"><stop stop-color="#05060e"/><stop offset=".143" stop-color="#161725"/><stop offset=".495" stop-color="#21222d"/><stop offset=".659" stop-color="#2d2f3f"/><stop offset=".801" stop-color="#282b39"/></linearGradient><linearGradient id="ab" x1="1531.99" x2="786.22" y1="1057.81" y2="427.616" gradientUnits="userSpaceOnUse"><stop stop-color="#05060e"/><stop offset=".143" stop-color="#161725"/><stop offset=".495" stop-color="#3b3e4d"/><stop offset=".659" stop-color="#2d2f3f"/><stop offset=".801" stop-color="#282b39"/></linearGradient><linearGradient id="ac" x1="43.237" x2="1082.76" y1="815.677" y2="905.477" gradientUnits="userSpaceOnUse"><stop stop-color="#0e1120"/><stop offset=".223" stop-color="#171a2c"/><stop offset=".301" stop-color="#1c1e30"/><stop offset=".413" stop-color="#212438"/><stop offset=".641" stop-color="#2d3044"/><stop offset="1" stop-color="#292e4d"/></linearGradient><linearGradient id="am" x1="698.676" x2="699.745" y1="871.802" y2="1081.2" gradientUnits="userSpaceOnUse"><stop offset=".391" stop-color="#070812" stop-opacity="0"/><stop offset=".96" stop-color="#070812"/></linearGradient><linearGradient id="ao" x1="23.043" x2="400.297" y1="831.713" y2="508.791" gradientUnits="userSpaceOnUse"><stop stop-color="#0d0f1b"/><stop offset=".298" stop-color="#16192c"/><stop offset=".697" stop-color="#202336"/><stop offset="1" stop-color="#22263b"/></linearGradient><linearGradient id="aq" x1="40.03" x2="122.346" y1="804.452" y2="1086.68" gradientUnits="userSpaceOnUse"><stop stop-color="#0f112b"/><stop offset="1" stop-color="#090b19"/></linearGradient><linearGradient id="ar" x1="828.959" x2="828.959" y1="-2.405" y2="718.831" gradientUnits="userSpaceOnUse"><stop offset=".02" stop-color="#2a2d42"/><stop offset=".292" stop-color="#373a50"/><stop offset=".409" stop-color="#3b3e54"/><stop offset=".903" stop-color="#333848"/></linearGradient><linearGradient id="at" x1="730.213" x2="674.088" y1="168.908" y2="-2.405" gradientUnits="userSpaceOnUse"><stop offset=".435" stop-color="#2d3043" stop-opacity="0"/><stop offset="1" stop-color="#272a3d"/></linearGradient><linearGradient id="aw" x1="1124.04" x2="899.388" y1="-11.759" y2="748.862" gradientUnits="userSpaceOnUse"><stop stop-color="#4a4f69"/><stop offset=".445" stop-color="#42465e"/><stop offset=".889" stop-color="#353a4a"/><stop offset=".923" stop-color="#3d4152"/><stop offset=".95" stop-color="#444758"/><stop offset=".961" stop-color="#494e67"/></linearGradient><linearGradient id="ax" x1="1063.73" x2="1063.73" y1="-2.294" y2="205.28" gradientUnits="userSpaceOnUse"><stop stop-color="#36394d"/><stop offset="1" stop-color="#333647"/></linearGradient><clipPath id="a"><path fill="#fff" d="M0 0h1920v1080H0z"/></clipPath></defs></svg>